<?xml version="1.0" encoding="iso-8859-1"?>
<!-- Generator: Adobe Illustrator 19.0.0, SVG Export Plug-In . SVG Version: 6.00 Build 0)  -->
<svg version="1.1" id="Capa_1" xmlns="http://www.w3.org/2000/svg" xmlns:xlink="http://www.w3.org/1999/xlink" x="0px" y="0px"
	 viewBox="0 0 512 512" style="enable-background:new 0 0 512 512;" xml:space="preserve">
<path style="fill:#595A66;" d="M337.455,0H104.727C84.945,0,69.818,15.127,69.818,34.909v58.182v384
	c0,19.782,15.127,34.909,34.909,34.909h232.727c19.782,0,34.909-15.127,34.909-34.909v-384V34.909
	C372.364,15.127,357.236,0,337.455,0z"/>
<path style="fill:#494A52;" d="M360.727,9.309v37.236v24.436v33.745v81.455v290.909c0,12.8-10.473,23.273-23.273,23.273H93.091
	c-6.982,0-12.8-2.327-18.618-4.655C81.455,505.018,91.927,512,104.727,512h232.727c19.782,0,34.909-15.127,34.909-34.909v-384
	V34.909C372.364,24.436,367.709,15.127,360.727,9.309z"/>
<path style="fill:#70B7E5;" d="M349.091,93.091v337.455c0,5.818-4.655,11.636-11.636,11.636H104.727
	c-6.982,0-11.636-4.655-11.636-11.636V93.091c0-5.818,4.655-11.636,11.636-11.636h232.727
	C344.436,81.455,349.091,86.109,349.091,93.091z"/>
<path style="fill:#4C9CD6;" d="M337.455,81.455H104.727c-6.982,0-11.636,4.655-11.636,11.636v11.636
	c0-5.818,4.655-11.636,11.636-11.636h232.727c6.982,0,11.636,4.655,11.636,11.636V93.091
	C349.091,86.109,344.436,81.455,337.455,81.455z"/>
<circle style="fill:#35363E;" cx="221.091" cy="477.091" r="11.636"/>
<g>
	<polygon style="fill:#90CEF1;" points="104.727,430.545 104.727,372.364 162.909,430.545 	"/>
	<polygon style="fill:#90CEF1;" points="104.727,349.091 186.182,430.545 209.455,430.545 104.727,325.818 	"/>
</g>
<g>
	<path style="fill:#6F707E;" d="M81.455,437.527c0,10.473-4.655,20.945-11.636,27.927l0,0V239.709l0,0
		c6.982,6.982,11.636,17.455,11.636,27.927V437.527z"/>
	<path style="fill:#6F707E;" d="M144.291,11.636c-10.473,0-20.945-4.655-27.927-11.636l0,0h186.182l0,0
		c-6.982,6.982-17.455,11.636-27.927,11.636H144.291z"/>
</g>
<g>
	<path style="fill:#35363E;" d="M250.182,46.545H192c-3.491,0-5.818-2.327-5.818-5.818l0,0c0-3.491,2.327-5.818,5.818-5.818h58.182
		c3.491,0,5.818,2.327,5.818,5.818l0,0C256,44.218,253.673,46.545,250.182,46.545z"/>
	<path style="fill:#35363E;" d="M168.727,34.909L168.727,34.909c3.491,0,5.818,2.327,5.818,5.818l0,0
		c0,3.491-2.327,5.818-5.818,5.818l0,0c-3.491,0-5.818-2.327-5.818-5.818l0,0C162.909,37.236,165.236,34.909,168.727,34.909z"/>
</g>
<path style="fill:#F37321;" d="M418.909,337.455H209.455c-12.8,0-23.273-10.473-23.273-23.273V174.545
	c0-12.8,10.473-23.273,23.273-23.273h209.455c12.8,0,23.273,10.473,23.273,23.273v139.636
	C442.182,326.982,431.709,337.455,418.909,337.455z"/>
<g>
	<polygon style="fill:#F79548;" points="290.909,337.455 221.091,337.455 302.545,151.273 372.364,151.273 	"/>
	<polygon style="fill:#F79548;" points="325.818,337.455 302.545,337.455 384,151.273 407.273,151.273 	"/>
</g>
<path style="fill:#EA5434;" d="M296.727,290.909h-81.455c-3.491,0-5.818-2.327-5.818-5.818s2.327-5.818,5.818-5.818h81.455
	c3.491,0,5.818,2.327,5.818,5.818S300.218,290.909,296.727,290.909z"/>
<path style="fill:#F37321;" d="M296.727,290.909c3.491,0,5.818-2.327,5.818-5.818s-2.327-5.818-5.818-5.818h-50.036l-4.655,11.636
	H296.727z"/>
<path style="fill:#EA5434;" d="M261.818,314.182h-46.545c-3.491,0-5.818-2.327-5.818-5.818s2.327-5.818,5.818-5.818h46.545
	c3.491,0,5.818,2.327,5.818,5.818S265.309,314.182,261.818,314.182z"/>
<path style="fill:#F37321;" d="M261.818,314.182c3.491,0,5.818-2.327,5.818-5.818s-2.327-5.818-5.818-5.818h-25.6l-4.655,11.636
	H261.818z"/>
<rect x="186.182" y="186.182" style="fill:#014463;" width="256" height="46.545"/>
<g>
	<polygon style="fill:#0B5068;" points="347.927,232.727 371.2,232.727 392.145,186.182 368.873,186.182 	"/>
	<polygon style="fill:#0B5068;" points="266.473,232.727 336.291,232.727 357.236,186.182 287.418,186.182 	"/>
</g>
<rect x="349.091" y="337.455" style="fill:#494A52;" width="11.636" height="11.636"/>
<path style="fill:#4C9CD6;" d="M209.455,337.455c6.982,6.982,17.455,11.636,27.927,11.636h111.709v-11.636H209.455L209.455,337.455z
	"/>
<g>
</g>
<g>
</g>
<g>
</g>
<g>
</g>
<g>
</g>
<g>
</g>
<g>
</g>
<g>
</g>
<g>
</g>
<g>
</g>
<g>
</g>
<g>
</g>
<g>
</g>
<g>
</g>
<g>
</g>
</svg>
