<?xml version="1.0" encoding="iso-8859-1"?>
<!-- Generator: Adobe Illustrator 19.0.0, SVG Export Plug-In . SVG Version: 6.00 Build 0)  -->
<svg version="1.1" id="Capa_1" xmlns="http://www.w3.org/2000/svg" xmlns:xlink="http://www.w3.org/1999/xlink" x="0px" y="0px"
	 viewBox="0 0 512 512" style="enable-background:new 0 0 512 512;" xml:space="preserve">
<path style="fill:#35495C;" d="M348.942,418.909H162.76c-6.982,0-11.636-4.655-11.636-11.636s4.655-11.636,11.636-11.636h186.182
	c6.982,0,11.636,4.655,11.636,11.636S355.924,418.909,348.942,418.909z"/>
<path style="fill:#123247;" d="M187.196,400.291l1.164-4.655h-24.436l-4.655,11.636h-8.145c0,4.655,3.491,9.309,8.145,10.473
	c1.164,0,2.327,1.164,3.491,1.164h18.618h167.564c6.982,0,11.636-4.655,11.636-11.636H193.015
	C189.524,407.273,186.033,403.782,187.196,400.291z"/>
<g>
	<path style="fill:#576D7E;" d="M407.124,488.727h-15.127L341.96,349.091h-24.436l55.855,154.764
		c1.164,4.655,5.818,8.145,10.473,8.145h23.273c6.982,0,11.636-4.655,11.636-11.636S414.106,488.727,407.124,488.727z"/>
	<path style="fill:#576D7E;" d="M169.742,349.091l-50.036,139.636h-15.127c-6.982,0-11.636,4.655-11.636,11.636
		S97.596,512,104.578,512h23.273c4.655,0,9.309-3.491,10.473-8.145l55.855-154.764H169.742z"/>
</g>
<path style="fill:#35495C;" d="M407.124,488.727h-11.636c6.982,0,11.636,4.655,11.636,11.636S402.469,512,395.487,512h11.636
	c6.982,0,11.636-4.655,11.636-11.636S414.106,488.727,407.124,488.727z"/>
<path style="fill:#B0C4D8;" d="M453.669,349.091H58.033c-19.782,0-34.909-15.127-34.909-34.909V46.545h465.455v267.636
	C488.578,333.964,473.451,349.091,453.669,349.091z"/>
<g>
	<path style="fill:#35495C;" d="M341.96,349.091L341.96,349.091h-11.636l0,0h-12.8l8.145,23.273c8.145,0,15.127,4.655,17.455,12.8
		l33.745,93.091c2.327,6.982,8.145,10.473,15.127,10.473l-48.873-136.145L341.96,349.091z"/>
	<path style="fill:#35495C;" d="M182.542,349.091L182.542,349.091h-12.8l-8.145,23.273h2.327c4.655,0,8.145,4.655,6.982,9.309
		l-43.055,122.182c-2.327,4.655-6.982,8.145-11.636,8.145h11.636c4.655,0,9.309-3.491,10.473-8.145l55.855-154.764H182.542z"/>
</g>
<path style="fill:#99B4CD;" d="M465.306,58.182v34.909l0,0v221.091H46.396c0,12.8,10.473,23.273,23.273,23.273h384
	c12.8,0,23.273-10.473,23.273-23.273V104.727c0-6.982,4.655-11.636,11.636-11.636V58.182H465.306z"/>
<path style="fill:#ECEFF9;" d="M453.669,325.818H58.033c-6.982,0-11.636-4.655-11.636-11.636V69.818h418.909v244.364
	C465.306,321.164,460.651,325.818,453.669,325.818z"/>
<g>
	<path style="fill:#B0C4D8;" d="M197.669,290.909c-2.327,0-4.655-1.164-6.982-2.327c-4.655-3.491-6.982-10.473-2.327-16.291
		l58.182-81.455c3.491-5.818,10.473-6.982,16.291-2.327c4.655,3.491,6.982,10.473,2.327,16.291l-58.182,81.455
		C204.651,289.745,201.16,290.909,197.669,290.909z"/>
	<path style="fill:#B0C4D8;" d="M337.306,244.364c-1.164,0-3.491,0-4.655-1.164l-81.455-34.909
		c-5.818-2.327-8.145-9.309-5.818-15.127c2.327-5.818,9.309-8.145,15.127-5.818l81.455,34.909c5.818,2.327,8.145,9.309,5.818,15.127
		C346.615,242.036,341.96,244.364,337.306,244.364z"/>
</g>
<path style="fill:#99B4CD;" d="M337.306,232.727c-1.164,0-3.491,0-4.655-1.164l-81.455-34.909c-2.327-1.164-3.491-2.327-5.818-4.655
	l-1.164,1.164c-2.327,5.818,0,12.8,5.818,15.127l81.455,34.909c2.327,1.164,4.655,1.164,5.818,1.164
	c4.655,0,9.309-2.327,10.473-6.982c1.164-3.491,1.164-6.982-1.164-10.473C345.451,230.4,340.796,232.727,337.306,232.727z"/>
<g>
	<path style="fill:#B0C4D8;" d="M337.306,244.364c-2.327,0-4.655,0-5.818-2.327c-5.818-3.491-6.982-10.473-3.491-16.291
		l58.182-93.091c3.491-5.818,10.473-6.982,16.291-3.491c5.818,3.491,6.982,10.473,3.491,16.291l-58.182,93.091
		C345.451,242.036,340.796,244.364,337.306,244.364z"/>
	<path style="fill:#B0C4D8;" d="M197.669,290.909c-1.164,0-3.491,0-4.655-1.164l-81.455-34.909
		c-5.818-2.327-8.145-9.309-5.818-15.127c2.327-5.818,9.309-8.145,15.127-5.818l81.455,34.909c5.818,2.327,8.145,9.309,5.818,15.127
		C206.978,288.582,202.324,290.909,197.669,290.909z"/>
</g>
<path style="fill:#99B4CD;" d="M206.978,273.455c-1.164,3.491-5.818,5.818-9.309,5.818c-1.164,0-3.491,0-4.655-1.164L111.56,243.2
	c-2.327-1.164-3.491-2.327-5.818-4.655l-1.164,1.164c-2.327,5.818,0,12.8,5.818,15.127l81.455,34.909
	c2.327,1.164,4.655,1.164,5.818,1.164c4.655,0,9.309-2.327,10.473-6.982C209.306,280.436,209.306,276.945,206.978,273.455z"/>
<circle style="fill:#EE2C39;" cx="197.669" cy="279.273" r="23.273"/>
<g>
	<circle style="fill:#3BB54A;" cx="116.215" cy="244.364" r="23.273"/>
	<circle style="fill:#3BB54A;" cx="255.851" cy="197.818" r="23.273"/>
</g>
<circle style="fill:#EE2C39;" cx="337.306" cy="232.727" r="23.273"/>
<circle style="fill:#3BB54A;" cx="395.487" cy="139.636" r="23.273"/>
<g>
	<path style="fill:#99B4CD;" d="M374.542,150.109l-2.327,4.655c0,2.327,1.164,5.818,2.327,6.982c2.327,4.655,2.327,9.309,0,13.964
		l-24.436,38.4c2.327,2.327,4.655,4.655,6.982,8.145l30.255-48.873l6.982-10.473C386.178,162.909,379.196,157.091,374.542,150.109z"
		/>
	<path style="fill:#99B4CD;" d="M234.906,207.127l-2.327,3.491c0,3.491,1.164,5.818,2.327,8.145
		c2.327,4.655,1.164,10.473-1.164,13.964l-20.945,29.091c2.327,2.327,4.655,4.655,5.818,8.145l27.927-38.4l6.982-10.473
		C245.378,219.927,238.396,215.273,234.906,207.127z"/>
</g>
<g>
	<path style="fill:#CC202C;" d="M353.596,249.018c6.982-6.982,8.145-18.618,4.655-26.764c-1.164-3.491-6.982-3.491-9.309-1.164
		l-23.273,23.273c-2.327,2.327-2.327,6.982,1.164,9.309C336.142,258.327,346.615,256,353.596,249.018z"/>
	<path style="fill:#CC202C;" d="M213.96,295.564c6.982-6.982,8.145-18.618,4.655-26.764c-1.164-3.491-6.982-3.491-9.309-1.164
		l-23.273,23.273c-2.327,2.327-2.327,6.982,1.164,9.309C196.506,304.873,206.978,302.545,213.96,295.564z"/>
</g>
<g>
	<path style="fill:#0E9347;" d="M411.778,155.927c6.982-6.982,8.145-18.618,4.655-26.764c-1.164-3.491-6.982-3.491-9.309-1.164
		l-23.273,23.273c-2.327,2.327-2.327,6.982,1.164,9.309C394.324,165.236,404.796,162.909,411.778,155.927z"/>
	<path style="fill:#0E9347;" d="M272.142,214.109c6.982-6.982,8.145-18.618,4.655-26.764c-1.164-3.491-6.982-3.491-9.309-1.164
		l-23.273,23.273c-2.327,2.327-2.327,6.982,1.164,9.309C254.687,223.418,265.16,221.091,272.142,214.109z"/>
	<path style="fill:#0E9347;" d="M132.506,260.655c6.982-6.982,8.145-18.618,4.655-26.764c-1.164-3.491-6.982-3.491-9.309-1.164
		L104.578,256c-2.327,2.327-2.327,6.982,1.164,9.309C115.051,269.964,125.524,267.636,132.506,260.655z"/>
</g>
<rect x="46.396" y="69.818" style="fill:#C4D7E5;" width="418.909" height="23.273"/>
<rect x="23.124" y="58.182" style="fill:#99B4CD;" width="23.273" height="34.909"/>
<path style="fill:#4C9CD6;" d="M476.942,69.818H34.76c-12.8,0-23.273-10.473-23.273-23.273l0,0c0-12.8,10.473-23.273,23.273-23.273
	h442.182c12.8,0,23.273,10.473,23.273,23.273l0,0C500.215,59.345,489.742,69.818,476.942,69.818z"/>
<path style="fill:#70B7E5;" d="M52.215,23.273h69.818c3.491,0,5.818,2.327,5.818,5.818l0,0c0,3.491-2.327,5.818-5.818,5.818H52.215
	c-3.491,0-5.818-2.327-5.818-5.818l0,0C46.396,25.6,48.724,23.273,52.215,23.273z"/>
<g>
	<path style="fill:#99B4CD;" d="M98.76,116.364h69.818c3.491,0,5.818,2.327,5.818,5.818l0,0c0,3.491-2.327,5.818-5.818,5.818H98.76
		c-3.491,0-5.818-2.327-5.818-5.818l0,0C92.942,118.691,95.269,116.364,98.76,116.364z"/>
	<path style="fill:#99B4CD;" d="M98.76,139.636h58.182c3.491,0,5.818,2.327,5.818,5.818l0,0c0,3.491-2.327,5.818-5.818,5.818H98.76
		c-3.491,0-5.818-2.327-5.818-5.818l0,0C92.942,141.964,95.269,139.636,98.76,139.636z"/>
</g>
<path style="fill:#70B7E5;" d="M145.306,34.909L145.306,34.909c-3.491,0-5.818-2.327-5.818-5.818l0,0
	c0-3.491,2.327-5.818,5.818-5.818l0,0c3.491,0,5.818,2.327,5.818,5.818l0,0C151.124,32.582,148.796,34.909,145.306,34.909z"/>
<path style="fill:#576D7E;" d="M267.487,23.273h-23.273V11.636C244.215,4.655,248.869,0,255.851,0l0,0
	c6.982,0,11.636,4.655,11.636,11.636V23.273z"/>
<path style="fill:#35495C;" d="M267.487,23.273v-5.818c0-3.491-2.327-5.818-5.818-5.818c-3.491,0-5.818,2.327-5.818,5.818v5.818
	H267.487z"/>
<path style="fill:#EE2C39;" d="M75.487,116.364c-3.491,0-5.818,2.327-5.818,5.818l0,0c0,3.491,2.327,5.818,5.818,5.818
	c3.491,0,5.818-2.327,5.818-5.818l0,0C81.306,118.691,78.978,116.364,75.487,116.364z M75.487,119.855
	C75.487,119.855,75.487,118.691,75.487,119.855L75.487,119.855C75.487,118.691,75.487,119.855,75.487,119.855z"/>
<path style="fill:#3BB54A;" d="M75.487,139.636c-3.491,0-5.818,2.327-5.818,5.818l0,0c0,3.491,2.327,5.818,5.818,5.818
	c3.491,0,5.818-2.327,5.818-5.818l0,0C81.306,141.964,78.978,139.636,75.487,139.636z M75.487,143.127L75.487,143.127
	L75.487,143.127L75.487,143.127z"/>
<path style="fill:#3689C9;" d="M476.942,23.273L476.942,23.273c0,12.8-10.473,23.273-23.273,23.273H11.487
	c0,12.8,10.473,23.273,23.273,23.273h441.018c11.636,0,22.109-8.145,24.436-19.782C502.542,36.073,490.906,23.273,476.942,23.273z"
	/>
<g>
	<path style="fill:#1470B8;" d="M389.669,58.182h69.818c3.491,0,5.818,2.327,5.818,5.818l0,0c0,3.491-2.327,5.818-5.818,5.818
		h-69.818c-3.491,0-5.818-2.327-5.818-5.818l0,0C383.851,60.509,386.178,58.182,389.669,58.182z"/>
	<path style="fill:#1470B8;" d="M331.487,58.182h34.909c3.491,0,5.818,2.327,5.818,5.818l0,0c0,3.491-2.327,5.818-5.818,5.818
		h-34.909c-3.491,0-5.818-2.327-5.818-5.818l0,0C325.669,60.509,327.996,58.182,331.487,58.182z"/>
</g>
<g>
</g>
<g>
</g>
<g>
</g>
<g>
</g>
<g>
</g>
<g>
</g>
<g>
</g>
<g>
</g>
<g>
</g>
<g>
</g>
<g>
</g>
<g>
</g>
<g>
</g>
<g>
</g>
<g>
</g>
</svg>
