<?xml version="1.0" encoding="iso-8859-1"?>
<!-- Generator: Adobe Illustrator 19.0.0, SVG Export Plug-In . SVG Version: 6.00 Build 0)  -->
<svg version="1.1" id="Capa_1" xmlns="http://www.w3.org/2000/svg" xmlns:xlink="http://www.w3.org/1999/xlink" x="0px" y="0px"
	 viewBox="0 0 512 512" style="enable-background:new 0 0 512 512;" xml:space="preserve">
<circle style="fill:#ECF0F9;" cx="256" cy="256" r="209.455"/>
<path style="fill:#C97629;" d="M256,0C114.036,0,0,114.036,0,256s114.036,256,256,256s256-114.036,256-256S397.964,0,256,0z
	 M256,465.455C140.8,465.455,46.545,371.2,46.545,256S140.8,46.545,256,46.545S465.455,140.8,465.455,256S371.2,465.455,256,465.455
	z"/>
<path style="fill:#D5E3EF;" d="M64,273.455C64,158.255,158.255,64,273.455,64c53.527,0,102.4,19.782,138.473,53.527
	C373.527,73.309,318.836,46.545,256,46.545C140.8,46.545,46.545,140.8,46.545,256c0,62.836,26.764,117.527,70.982,155.927
	C83.782,375.855,64,326.982,64,273.455z"/>
<path style="fill:#C97629;" d="M69.818,267.636H23.273c-6.982,0-11.636-4.655-11.636-11.636l0,0c0-6.982,4.655-11.636,11.636-11.636
	h46.545c6.982,0,11.636,4.655,11.636,11.636l0,0C81.455,262.982,76.8,267.636,69.818,267.636z"/>
<path style="fill:#B06328;" d="M46.545,256c0,3.491,0,8.145,1.164,11.636h17.455c0-8.145,1.164-15.127,2.327-23.273H47.709
	C46.545,247.855,46.545,252.509,46.545,256z"/>
<g>
	<path style="fill:#C97629;" d="M488.727,267.636h-46.545c-6.982,0-11.636-4.655-11.636-11.636l0,0
		c0-6.982,4.655-11.636,11.636-11.636h46.545c6.982,0,11.636,4.655,11.636,11.636l0,0
		C500.364,262.982,495.709,267.636,488.727,267.636z"/>
	<path style="fill:#C97629;" d="M244.364,69.818V23.273c0-6.982,4.655-11.636,11.636-11.636l0,0c6.982,0,11.636,4.655,11.636,11.636
		v46.545c0,6.982-4.655,11.636-11.636,11.636l0,0C249.018,81.455,244.364,76.8,244.364,69.818z"/>
</g>
<path style="fill:#B06328;" d="M244.364,47.709v18.618c8.145-1.164,15.127-1.164,23.273-2.327V47.709
	c-3.491-1.164-8.145-1.164-11.636-1.164C252.509,46.545,247.855,46.545,244.364,47.709z"/>
<path style="fill:#C97629;" d="M244.364,488.727v-46.545c0-6.982,4.655-11.636,11.636-11.636l0,0
	c6.982,0,11.636,4.655,11.636,11.636v46.545c0,6.982-4.655,11.636-11.636,11.636l0,0
	C249.018,500.364,244.364,495.709,244.364,488.727z"/>
<path style="fill:#DA8C36;" d="M256,0L256,0C114.036,0,0,114.036,0,256l0,0c12.8,0,23.273-9.309,24.436-22.109
	C30.255,178.036,54.691,126.836,93.091,89.6c37.236-36.073,86.109-60.509,140.8-65.164C246.691,23.273,256,12.8,256,0z"/>
<path style="fill:#B06328;" d="M256,512L256,512c141.964,0,256-114.036,256-256l0,0c-12.8,0-23.273,9.309-24.436,22.109
	c-4.655,54.691-29.091,103.564-65.164,140.8c-37.236,38.4-87.273,62.836-144.291,68.655C265.309,488.727,256,499.2,256,512z"/>
<g>
	<path style="fill:#595A66;" d="M256,244.364c-6.982,0-11.636-4.655-11.636-11.636v-93.091c0-6.982,4.655-11.636,11.636-11.636
		c6.982,0,11.636,4.655,11.636,11.636v93.091C267.636,239.709,262.982,244.364,256,244.364z"/>
	<path style="fill:#595A66;" d="M360.727,372.364c-3.491,0-5.818-1.164-8.145-3.491l-93.091-93.091
		c-4.655-4.655-4.655-11.636,0-16.291s11.636-4.655,16.291,0l93.091,93.091c4.655,4.655,4.655,11.636,0,16.291
		C366.545,371.2,364.218,372.364,360.727,372.364z"/>
</g>
<g>
	<ellipse style="fill:#F6B545;" cx="168.669" cy="104.739" rx="11.636" ry="11.636"/>
	<ellipse style="fill:#F6B545;" cx="343.319" cy="407.249" rx="11.636" ry="11.636"/>
	<ellipse style="fill:#F6B545;" cx="104.809" cy="168.797" rx="11.636" ry="11.636"/>
	<ellipse style="fill:#F6B545;" cx="407.238" cy="343.156" rx="11.636" ry="11.636"/>
	<ellipse style="fill:#F6B545;" cx="343.168" cy="104.762" rx="11.636" ry="11.636"/>
	<ellipse style="fill:#F6B545;" cx="168.844" cy="407.191" rx="11.636" ry="11.636"/>
	<ellipse style="fill:#F6B545;" cx="407.249" cy="168.669" rx="11.636" ry="11.636"/>
	<ellipse style="fill:#F6B545;" cx="104.739" cy="343.319" rx="11.636" ry="11.636"/>
</g>
<g>
	<path style="fill:#35363E;" d="M256,226.909v-81.455c0-3.491,2.327-5.818,5.818-5.818l0,0c3.491,0,5.818,2.327,5.818,5.818v81.455
		c0,3.491-2.327,5.818-5.818,5.818l0,0C258.327,232.727,256,230.4,256,226.909z"/>
	<path style="fill:#35363E;" d="M351.418,367.709l-80.291-80.291c-2.327-2.327-2.327-5.818,0-8.145l0,0
		c2.327-2.327,5.818-2.327,8.145,0l80.291,80.291c2.327,2.327,2.327,5.818,0,8.145l0,0
		C357.236,370.036,353.745,370.036,351.418,367.709z"/>
</g>
<circle style="fill:#C97629;" cx="256" cy="256" r="34.909"/>
<path style="fill:#B06328;" d="M274.618,225.745c3.491,5.818,4.655,11.636,4.655,18.618c0,19.782-15.127,34.909-34.909,34.909
	c-6.982,0-12.8-2.327-18.618-4.655c6.982,9.309,17.455,16.291,30.255,16.291c19.782,0,34.909-15.127,34.909-34.909
	C290.909,243.2,283.927,232.727,274.618,225.745z"/>
<circle style="fill:#DA8C36;" cx="238.545" cy="250.182" r="5.818"/>
<g>
</g>
<g>
</g>
<g>
</g>
<g>
</g>
<g>
</g>
<g>
</g>
<g>
</g>
<g>
</g>
<g>
</g>
<g>
</g>
<g>
</g>
<g>
</g>
<g>
</g>
<g>
</g>
<g>
</g>
</svg>
