<svg version="1" xmlns="http://www.w3.org/2000/svg" width="1924" height="1924" viewBox="0 0 1443.000000 1443.000000"><path d="M188.7 182.6c-.1.1-23.8.5-52.7.8-28.9.4-56.1.9-60.5 1.1-4.4.2-10.4.3-13.2.4l-5.3.1v59.5c0 56 .1 59.5 1.8 59.6.9 0 5.5.2 10.2.4 4.7.2 19.3.6 32.5.9 13.2.4 32.1.9 42 1.1 18.9.5 45.1 1.1 85 2 25.8.6 43.5 1.4 44.6 2 .4.3.8 10 1 21.7.4 29.6.3 355.4-.2 550.4l-.4 162.2-102.5.1c-56.4.1-102.8.5-103.2.9-.4.4-.8 28.4-1 62.3l-.3 61.5 136-.2c116.6-.2 196.6-.7 262.5-1.9 8.5-.1 49.9-.5 92-.9 199.9-1.6 227.1-2 279-4.1 6.3-.2 21.2-.7 33-1 44-1.2 63-2.2 73.5-4 4.4-.8 13.6-1.9 20.5-2.5 6.9-.6 15.9-1.8 20-2.5 4.1-.8 10.9-1.6 15.1-1.9 4.2-.3 10.3-1.2 13.5-2 3.3-.8 9.3-2 13.4-2.6 10.9-1.6 10.9-1.7 17.5-3.3 3.3-.8 8.4-1.8 11.3-2.1 2.8-.3 9.1-1.7 13.8-3.1 4.8-1.4 9.5-2.5 10.5-2.5s4.2-.9 7.1-1.9c2.9-1.1 7.2-2.3 9.5-2.6 2.4-.3 6.2-1.5 8.5-2.5 2.4-1.1 5.3-2 6.6-2 1.3 0 5.1-1.1 8.5-2.4 3.4-1.4 8-2.9 10.2-3.5 2.2-.6 4.9-1.8 5.9-2.6 1.1-.8 2.7-1.5 3.5-1.5 3.9 0 30.5-12.3 45.7-21.1 9.9-5.7 25.5-16 30.9-20.4 13.2-10.8 32.9-30.8 41.8-42.6 8.7-11.4 24.7-40.8 28.2-51.9 1-3 2.6-8 3.6-11 1.1-3 2.1-7.3 2.4-9.5.4-2.2 1.2-6 2-8.5 4.8-15.3 7.3-58.1 5-87-2.2-27.9-5.5-40.2-17.1-63.5-16-32.1-36-54.8-72.1-81.9-14.2-10.7-27.6-18.8-45.8-27.8-21.7-10.8-36-15.9-58.5-20.9-4.7-1-10.3-2.5-12.5-3.3-2.2-.9-5.9-1.8-8.2-2.2-2.4-.4-4.3-1-4.3-1.4 0-2.6 10.4-8 25.2-13.1 3.1-1 9.4-3.7 13.9-5.9 4.6-2.2 9-4 9.9-4 .9 0 2.4-.8 3.4-1.8.9-1.1 3.3-2.4 5.4-3 7.6-2.4 41.3-23.3 49.8-31 1-.9 3.9-3.3 6.4-5.2 2.5-1.9 4.7-3.7 5-4 .3-.3 2.8-2.5 5.5-4.9 14.1-12.4 35.7-34.5 44-45.1 3.3-4.1 6.5-8.1 7.2-8.8.7-.7 1.3-1.8 1.3-2.3 0-.6 1.3-2.9 2.9-5.2 6.7-9.8 15.5-30.5 17.1-40 .5-3 1.3-7.2 1.9-9.4 1.9-6.9 2.6-21.2 2.5-47.3-.1-26.8-.7-36-2.9-45-.7-3-1.6-7.5-1.9-10-1.2-8.4-6.6-23.9-12.1-34.6-4.6-8.8-15.1-25.4-17.4-27.4-.3-.3-3-3.4-6-7-19.7-23.6-50.7-49.1-74.9-61.6-4.8-2.5-9.8-5.1-11.2-5.9-10-5.4-28.7-13.3-38.1-16.1-3-.9-5.9-2-6.4-2.4-2.7-2.2-61.8-16.8-71-17.6-3.3-.2-7.6-.9-9.6-1.4-5.7-1.6-13.3-2.9-20.1-3.5-3.5-.4-11.7-1.5-18.3-2.5-6.6-1.1-17.8-2.2-25-2.5-20-.8-35.9-1.7-36.5-2-.3-.2-5.9-.6-12.5-1-6.6-.3-14.5-.8-17.5-1-3-.2-14.9-.7-26.5-1-40.5-1-56.6-1.7-75-3-4.8-.3-40.1-1.1-95-2-75.6-1.3-512.6-2.9-513.8-1.9zm355.8 125.8c30.3.3 89.9.8 132.5 1.1 73.9.5 85.9.7 117 2 7.4.3 21.4.7 31 1 9.6.3 23.4.7 30.5 1 7.2.3 19.5.7 27.5 1 13.1.5 32.7 2.2 34 3 .3.2 4.6.6 9.5 1 12.1.8 15.9 1.4 23 3 3.3.8 8.9 1.9 12.5 2.5 3.5.7 7.6 1.8 9.1 2.6 1.5.7 4.9 1.8 7.5 2.4 2.7.6 8.2 2.7 12.2 4.6 4 1.9 9.2 4.2 11.5 5 2.3.8 5.1 2.3 6.2 3.3 1.1 1 3.2 2.1 4.7 2.5 1.5.3 6.2 3 10.5 5.9 21.7 14.5 36 30.4 45.3 50.2 3.1 6.6 6.2 13.8 6.8 16 .6 2.2 2.2 7.4 3.4 11.5 2 6.8 2.2 9.6 2.2 30-.1 23.9-.1 24.2-3.4 38.4-6.6 28-19.6 50.4-38 65.6-8 6.6-24.5 17.1-29 18.5-1.4.4-3.2 1.3-4 2-2.6 2.3-30.5 11.8-38.5 13.1-2.2.4-5.1 1.2-6.5 1.9-2.4 1.2-5.5 1.9-13.5 3-2.2.4-6 1.3-8.5 2-2.5.8-8.8 1.9-14 2.5-5.2.5-11 1.4-12.9 2-3.9 1.1-26.6 3.6-41.6 4.6-5.5.3-10.9.8-12 1-7 1.5-55.9 1.9-219.7 1.9-101.5 0-185-.4-185.4-.8-.5-.5-.8-63.2-.8-139.5 0-142.7.1-163.2 1.3-165 .9-1.5 4.3-1.8 20.1-1.6 8 .1 39.3.4 69.5.8zm337 412.9c1.7.3 6.8.8 11.5 1.2 4.7.3 10.1.8 12 1 1.9.2 7.1.7 11.5 1.1 4.4.3 11.4 1.2 15.5 2s12.2 2.3 18 3.3c10.5 1.9 32.9 8.7 40.6 12.2 2.2 1.1 5 2.1 6.2 2.4 1.2.2 3.5 1.3 5.1 2.4 1.6 1.2 3.4 2.1 3.9 2.1 1.6 0 19.2 11.9 26.7 18.1 16.2 13.4 30.1 28.3 39.1 41.9 6.8 10.4 14.4 24.9 14.4 27.4 0 .9 1 3.6 2.2 5.9 1.6 3.3 2.2 6.8 2.7 16.2 1.1 20.7.4 52.1-1.3 62.9-4.2 25.6-16.8 48.9-37.4 69.3-4.6 4.6-8.7 8.3-9.2 8.3s-1.5.6-2.2 1.3c-6.5 6-29.2 18-41.8 22-21.7 6.8-45.5 12.3-63.5 14.6-15.1 2-36.5 2.2-256.6 2.7l-220.6.4-.2-33.2c-.1-18.3-.4-73.6-.6-122.8-.3-80.6-1-120.9-2-128-.2-1.4-.7-9.8-1-18.7l-.7-16.2 6.4-.3c10.3-.6 418-.1 421.3.5z"/><path d="M508.8 364.1c-1.1 2.8-1.7 204.4-.7 206.1.5.8 8.4.8 36.5-.1l2.2-.1.2-42.8c.1-23.5.3-54 .5-67.7.2-13.8.4-33.2.4-43.3l.1-18.2 108.3.5c121.5.6 178.1 1.4 193.7 3 3.4.3 20.6 1 53.5 2 8.8.3 17.6.7 19.5 1 1.9.2 5.3.6 7.5.9 2.2.3 6 .8 8.5 1 19 2.1 21.3 2.4 31.5 4.7 13.1 2.9 18.8 4.4 29.9 7.8 10.5 3.3 12.7 3 10.4-1.3-4-7.7-31.3-24.8-53.3-33.4-10.9-4.2-36.1-11-43.5-11.7-3.3-.3-8.8-.7-12.2-1-3.5-.3-9.9-1-14.3-1.5-16.3-1.9-59.6-3.2-149.5-4.6-22.3-.3-48.8-.7-59-.9-10.2-.2-52.5-.6-94.1-1-64.3-.7-75.7-.6-76.1.6zM536.5 769l-28 .5-.2 13c-.1 7.1-.2 58-.2 112.9-.1 79.3.1 100.1 1.1 100.8.7.4 9.4.8 19.4.8h18.1l.2-38.8c.1-21.3.4-62.3.7-91.2.6-45.8.8-56.3 1.3-62.9.1-1.2 11.2-1.3 74.4-.7 77.5.7 103.6 1.1 152.7 2.1 27.8.5 36.5.9 52 2 3.6.2 14.4.7 24 1 32.5 1 53.6 2.3 59.7 3.6 2.2.5 9 1.1 15 1.5 5.9.3 16 1.6 22.3 2.9 6.3 1.3 13.5 2.6 16 2.9 2.5.3 7.1 1.5 10.3 2.6 3.1 1.1 6.7 2 8.1 2 1.3 0 4.8.9 7.8 1.9 8.2 3 25.9 8.1 28 8.1 1.1 0 2.8.5 3.9 1 1.6.9 1.9.7 1.9-1.1 0-8.4-42.6-33.3-68.5-40.1-2.2-.6-5.2-1.6-6.6-2.4-5.2-2.7-41.2-10.8-52.9-11.8-26.1-2.4-38.8-3.7-41-4-4.3-.7-42.6-2-96-3.1-12.4-.2-36.2-.7-53-1.1-16.8-.3-33.9-.8-38-.9-4.1-.2-28.6-.6-54.5-1-25.8-.3-47.7-.7-48.5-.8-.8-.1-14.1 0-29.5.3z"/><path d="M1201.7 213.4c-.3.7.4 2.7 1.5 4.3 2.5 3.5 15.1 13.5 22.6 18.1 9.5 5.8 33.9 27.8 45.7 41.2 2.6 3 7.5 8.5 10.8 12.2 7.3 8.4 11.9 14.7 18.9 26.3 5.5 9.2 17.8 33.7 17.8 35.5 0 .6 1.1 3.8 2.5 7.2 1.4 3.5 2.7 7.3 3 8.6.2 1.2 1.3 4.7 2.4 7.8 1.2 3 2.1 6.8 2.1 8.4 0 1.6 1 6.5 2.2 10.7 2.2 7.5 2.3 9.3 2.2 47.8 0 34.5-.2 41-1.7 47.5-1 4.1-2 9.5-2.3 12-.4 2.5-1.5 6.5-2.5 8.9-1 2.4-1.9 4.8-1.9 5.4 0 1.2-11.8 25.3-16 32.7-4.6 7.9-15.5 23.6-20.9 29.9-5.6 6.6-31.5 32.8-39.2 39.6-11.8 10.4-39.2 28.2-49.2 32-2.6 1-5 2.2-5.3 2.7-.3.4-2 1.5-3.9 2.2-3.8 1.6-6.8 5.6-6 7.8.3.8 10.4 6.4 22.3 12.3 30.1 15.1 48.7 26.8 65.2 41.1 3 2.7 11.8 11.1 19.5 18.9 13.6 13.6 28.1 32 33.4 42.2 1.2 2.4 3.5 6.4 5.1 8.9 1.6 2.6 3.5 6.3 4.1 8.3.7 2 2 4.7 3 6 1.1 1.3 1.9 3.3 1.9 4.5 0 1.2.6 3 1.4 4.1 2.1 3.1 7.7 20.2 9.1 28 .7 3.8 1.8 9.7 2.5 13 .8 3.8 1.3 16.3 1.3 34.5.2 34.8-.2 44.3-2 53.4-.7 3.9-1.6 10-1.9 13.6-.3 3.6-1.6 10.3-2.9 15-1.4 4.7-2.9 10.7-3.5 13.5-2.7 12.1-14.6 40.6-24.3 58-18.7 33.6-51.6 69-85.1 91.4-19.1 12.8-55.7 33-64.6 35.6-1.4.5-3.6 1.5-4.9 2.3-1.3.9-4.4 2.3-7 3.3-2.5.9-7.3 2.6-10.6 3.8-3.3 1.2-7.3 2.8-9 3.5-1.6.8-4.8 1.9-7 2.4-2.2.6-9.3 2.9-15.8 5.1-6.5 2.3-12.5 4.1-13.3 4.1-.7 0-4 .9-7.1 2-3.2 1.1-7.6 2.2-9.8 2.5-2.2.3-6.9 1.5-10.5 2.7-3.6 1.1-9.4 2.4-12.9 2.9-3.6.5-8.4 1.6-10.7 2.4-2.3.8-6.9 1.7-10.1 2-3.2.3-10.1 1.4-15.3 2.5-8.4 1.6-16 2.7-34.5 4.6-2.7.3-7.6.9-10.7 1.5-3.2.5-13.5 1.2-23 1.4-9.5.3-21.1.7-25.8 1-4.7.3-12.3.8-17 1.1-4.7.2-10.5.7-13 .9-15.8 1.6-120.4 2.3-482 3.1-159.2.3-292.4.7-296 .8l-6.5.1v37l8 .7c8.6.7 468.5.2 487.5-.6 6.3-.2 31.1-.7 55-1 23.9-.4 53.9-.9 66.5-1.1 12.7-.2 38.1-.7 56.5-1 47-.8 77.5-1.8 86.1-2.9 2.5-.4 18.9-1.2 42.9-2.1 14.7-.6 27.5-1.4 31-2 4.1-.7 11-1.3 20.5-2 22.9-1.5 27.5-2 38-4 3.9-.7 10.8-1.6 15.5-2 4.7-.3 12.3-1.5 17-2.5 4.7-1 11.7-2.1 15.5-2.4 3.9-.4 10.2-1.5 14-2.5 3.9-1 9.9-2.4 13.5-3 3.6-.7 8.5-1.8 11-2.6s5.9-1.6 7.5-1.8c3.2-.4 13.2-3.2 25.7-7.3 4.2-1.4 8.9-2.7 10.4-3 1.4-.3 4.3-1.3 6.3-2.3 2-1 5.2-2.1 7.1-2.5 9.2-1.7 56.9-23.6 76.9-35.2 42.3-24.5 85-64.3 111-103.4 8.1-12 19.2-33.6 26.4-51 7.9-19 17.5-55.7 18.2-69.7.5-9.3 1.2-15.4 3.1-29.8.9-7.4 1.2-42.8.4-52-.9-9.3-1.9-17.9-2.5-21.5-.2-1.4-.7-6.4-1-11.1-.3-4.8-1-10-1.4-11.5-11.9-39.4-22.2-61.8-40.2-86.9-12.4-17.3-33.9-38.8-50.9-50.8-8-5.6-23.7-15.7-24.5-15.7-.3 0-3.2-1.8-6.4-4s-6.4-4-7.1-4c-.6 0-1-.4-.8-1 .2-.5 12.2-13 26.8-27.7 14.6-14.7 29.9-30.4 33.9-34.8 7.4-8 21.8-26.6 22.9-29.5.3-.8 1.6-3.2 2.8-5.2 7.4-11.9 17.1-33.8 19.4-44 .7-2.9 2-7.6 3.1-10.3 1-2.8 1.9-6.1 1.9-7.3 0-1.2 1.1-7.3 2.5-13.6 1.3-6.2 2.7-13.5 3.1-16.2.9-6.2.9-67 0-75-.8-7.2-5.4-27-7.1-30.4-.7-1.4-1.8-4.9-2.4-7.8-1.2-5.6-14.9-33.9-22.1-45.7-7.3-11.9-14.8-20.7-34-39.7-14-13.9-21.5-20.4-30.7-26.8-30.1-20.9-48.2-31.3-60.6-34.6-6.6-1.8-10.3-1.8-11 0zM101.1 380.2c-.1 12.6.2 16.8 1.2 16.9.6.1 5 .1 9.7.1 4.7 0 35.4-.1 68.3-.1l59.7-.1v-33h-38.2c-21.1-.1-52.3-.2-69.5-.3l-31.2-.2v16.7z"/></svg>